<svg enable-background="new 0 0 32 32" viewBox="0 0 32 32" xmlns="http://www.w3.org/2000/svg"><path d="m31 10.36h-9.36v-9.36h.721v8.131l8.385-8.385.51.509-8.387 8.385h8.131zm-9.64 5.64c0-2.956-2.405-5.36-5.36-5.36-2.956 0-5.36 2.404-5.36 5.36 0 2.955 2.404 5.36 5.36 5.36 2.955 0 5.36-2.405 5.36-5.36zm-.72 0c0 2.559-2.081 4.64-4.64 4.64s-4.64-2.081-4.64-4.64 2.082-4.64 4.64-4.64 4.64 2.081 4.64 4.64zm10.72 0c0-1.353-.191-2.731-.569-4.096l-.693.191c.359 1.303.542 2.616.542 3.904 0 8.072-6.567 14.64-14.64 14.64-8.073.001-14.64-6.567-14.64-14.639 0-8.073 6.567-14.64 14.64-14.64 1.287 0 2.601.183 3.904.543l.191-.694c-1.366-.377-2.743-.569-4.095-.569-8.47 0-15.36 6.89-15.36 15.36s6.89 15.36 15.36 15.36 15.36-6.89 15.36-15.36zm-5 0c0-1.433-.292-2.828-.868-4.144l-.66.288c.536 1.226.808 2.523.808 3.856 0 5.315-4.324 9.64-9.64 9.64s-9.64-4.325-9.64-9.64 4.325-9.64 9.64-9.64c1.333 0 2.631.272 3.855.808l.289-.659c-1.317-.577-2.71-.869-4.144-.869-5.712 0-10.36 4.648-10.36 10.36 0 5.713 4.647 10.36 10.36 10.36s10.36-4.647 10.36-10.36zm-10.36-1c-.552 0-1 .448-1 1s.448 1 1 1 1-.448 1-1-.448-1-1-1z"/><path d="m0 0h32v32h-32z" fill="none"/></svg>